Coordinates
version=1
nRows=8
nColumns=46
inDegrees=yes

Units are S.I. units (second, meters, Newtons, ...)
Angles are in degrees.

endheader
time	pelvis_tilt	pelvis_list	pelvis_rotation	pelvis_tx	pelvis_ty	pelvis_tz	bb_angle	bb_tx	bb_ty	bb_tz	hip_flexion_r	hip_adduction_r	hip_rotation_r	knee_angle_r	knee_angle_r_beta	ankle_angle_r	subtalar_angle_r	mtp_angle_r	crank_angle_r	hip_flexion_l	hip_adduction_l	hip_rotation_l	knee_angle_l	knee_angle_l_beta	ankle_angle_l	subtalar_angle_l	mtp_angle_l	crank_angle_l	lumbar_extension	lumbar_bending	lumbar_rotation	arm_flex_r	arm_add_r	arm_rot_r	elbow_flex_r	pro_sup_r	wrist_flex_r	wrist_dev_r	arm_flex_l	arm_add_l	arm_rot_l	elbow_flex_l	pro_sup_l	wrist_flex_l	wrist_dev_l
      0.00500000	    -18.29289041	     -3.07734162	     -4.34848639	      0.09454944	      1.13644799	     -0.23053349	      0.00000000	      0.50000000	      0.00000000	      0.25000000	     93.31754281	     -6.76432275	     -4.57052040	     98.00145104	      1.71044799	     22.92538735	      4.06895848	      0.00000000	      0.00000000	     51.07454103	    -17.00448644	    -11.02180378	     58.24729023	      1.01660699	     11.64435563	     11.05355976	      0.00000000	      0.00000000	    -47.60064842	      2.61020591	      8.50045873	     89.63117615	     -9.48555092	     30.58091473	     33.68737278	     25.15048138	      0.00000000	      0.00000000	     89.56303890	      0.32350480	     29.35845563	     24.18194400	     23.78479123	      0.00000000	      0.00000000
      0.01000000	    -18.29226062	     -3.09245409	     -4.33232255	      0.09455423	      1.13645685	     -0.23057415	      0.00000000	      0.50000000	      0.00000000	      0.25000000	     93.30942727	     -6.79016979	     -4.59391832	     98.00555794	      1.71051967	     22.93725918	      4.06090105	      0.00000000	      0.00000000	     51.08176165	    -16.99605223	    -10.99570939	     58.24708224	      1.01660336	     11.63250600	     11.00713281	      0.00000000	      0.00000000	    -47.60468199	      2.64319957	      8.52708254	     89.62865980	     -9.31110040	     29.95739625	     33.97172498	     23.27449115	      0.00000000	      0.00000000	     89.56717219	      0.16513083	     30.58250687	     24.42096705	     21.82925075	      0.00000000	      0.00000000
      0.01500000	    -18.32168572	     -3.08513952	     -4.33893065	      0.09462236	      1.13645452	     -0.23057570	      0.00000000	      0.50000000	      0.00000000	      0.25000000	     93.33335600	     -6.78893346	     -4.59049175	     98.00449158	      1.71050106	     22.95368978	      4.07557253	      0.00000000	      0.00000000	     51.09624979	    -16.99430276	    -11.00291104	     58.22682334	      1.01624978	     11.64267332	     11.04978187	      0.00000000	      0.00000000	    -47.59633024	      2.59073864	      8.46755381	     89.62537211	     -9.17033016	     29.43565907	     33.67542232	     24.68297709	      0.00000000	      0.00000000	     89.56823666	      0.37955905	     29.25887476	     24.27201599	     23.22699613	      0.00000000	      0.00000000
      0.02000000	    -18.38645468	     -3.25397546	     -4.53934202	      0.09438198	      1.13602930	     -0.22969907	      0.00000000	      0.50000000	      0.00000000	      0.25000000	     93.41158979	     -6.45294366	     -4.73186430	     97.98966531	      1.71024229	     22.93794484	      4.20440846	      0.00000000	      0.00000000	     51.18111361	    -17.21793041	    -10.82866127	     58.24997224	      1.01665380	     11.80756035	     11.47151882	      0.00000000	      0.00000000	    -47.58811973	      2.46192205	      8.66866611	     89.61192502	     -9.14954944	     28.86766353	     33.84593253	     25.61229174	      0.00000000	      0.00000000	     89.57210485	      0.60251031	     28.31418841	     24.48066399	     24.14641342	      0.00000000	      0.00000000
      0.02500000	    -18.49595168	     -3.18299625	     -4.44729778	      0.09429511	      1.13601799	     -0.23013182	      0.00000000	      0.50000000	      0.00000000	      0.25000000	     93.54688035	     -6.53422395	     -4.64455252	     97.98780810	      1.71020988	     22.83943293	      3.83408440	      0.00000000	      0.00000000	     51.35092489	    -17.19937616	    -10.90611117	     58.33108896	      1.01806956	     11.74014224	     11.32005494	      0.00000000	      0.00000000	    -47.38009181	      2.45888013	      8.56325845	     89.61485104	     -9.07061687	     29.03936812	     33.20039650	     26.21816675	      0.00000000	      0.00000000	     89.57547265	      0.79412462	     27.79377073	     23.90315946	     24.69692565	      0.00000000	      0.00000000
      0.03000000	    -18.22732205	     -3.26877402	     -4.48738732	      0.09444454	      1.13658971	     -0.23011727	      0.00000000	      0.50000000	      0.00000000	      0.25000000	     93.19506453	     -6.49331377	     -4.71607776	     97.98712848	      1.71019802	     23.06014957	      4.16004814	      0.00000000	      0.00000000	     51.02710356	    -17.35302698	    -10.95471459	     58.33158369	      1.01807819	     11.99657692	     11.66958623	      0.00000000	      0.00000000	    -47.82013158	      2.46375122	      8.73347269	     89.60946922	     -9.21231114	     28.12777855	     33.84847475	     27.43172436	      0.00000000	      0.00000000	     89.54051730	      0.74198976	     26.69644447	     24.74022998	     25.95915256	      0.00000000	      0.00000000
      0.03500000	    -18.35083960	     -3.23703215	     -4.51050970	      0.09443055	      1.13633108	     -0.23006499	      0.00000000	      0.50000000	      0.00000000	      0.25000000	     93.34963613	     -6.46090865	     -4.65654174	     97.99488081	      1.71033332	     23.09141680	      4.31367480	      0.00000000	      0.00000000	     51.15504231	    -17.38305442	    -11.02723835	     58.33965513	      1.01821907	     11.99983605	     11.83959193	      0.00000000	      0.00000000	    -47.68251189	      2.41723300	      8.70728995	     89.59938826	     -9.16536452	     27.80231798	     33.71522536	     28.18820332	      0.00000000	      0.00000000	     89.53338082	      0.88670349	     26.04562348	     24.74914594	     26.70523734	      0.00000000	      0.00000000
      0.04000000	    -18.51488726	     -3.18469976	     -4.42744777	      0.09434623	      1.13605613	     -0.23026153	      0.00000000	      0.50000000	      0.00000000	      0.25000000	     93.55372003	     -6.55904089	     -4.64016552	     98.00000398	      1.71042274	     22.86887110	      3.85701398	      0.00000000	      0.00000000	     51.37162449	    -17.20029704	    -10.91718920	     58.32054281	      1.01788549	     11.75036779	     11.23400298	      0.00000000	      0.00000000	    -47.37202087	      2.46615972	      8.55097180	     89.61723632	     -9.04937148	     28.81913451	     32.76798963	     28.42637713	      0.00000000	      0.00000000	     89.57143977	      1.02719900	     26.44547118	     23.58794153	     26.80235582	      0.00000000	      0.00000000
